<?xml version="1.0" encoding="utf-8"?>
<!-- Generator: Adobe Illustrator 23.1.0, SVG Export Plug-In . SVG Version: 6.00 Build 0)  -->
<svg version="1.1" id="Layer_1" xmlns="http://www.w3.org/2000/svg" xmlns:xlink="http://www.w3.org/1999/xlink" x="0px" y="0px"
	 viewBox="0 0 192 192" style="enable-background:new 0 0 192 192;" xml:space="preserve">
<style type="text/css">
	.st0{fill:#FFFFFF;}
</style>
<g>
	<g>
		<g>
			<g>
				<g>
					<path class="st0" d="M96.1,97.2c8.3,0,15.1-6.9,15.4-15.4V54.9l0,0c0-8.5-6.9-15.6-15.4-15.6s-15.4,7.1-15.4,15.6l0,0v26.9
						C80.7,90.3,87.5,97.2,96.1,97.2z M145.4,27.3c-9.4,0-16.1,6.6-24.3,10.9c-0.5,0.2-1.2,0.5-1.9,0.7v43
						C119,94.6,108.6,105,96.1,105c-12.8,0-23.1-10.6-23.1-23.6V38.6c-0.7-0.2-1.2-0.5-1.9-0.7C62.7,33.9,56.4,27,46.7,27
						c-16.3,0-28.1,17-22.4,32.6c2.4,6.9,7.3,10.6,13,14.4c6.9,4.5,13.2,10.2,18.4,16.5c7.6,9.7,12.8,21.3,15.1,33.3
						c1.2,5.7,1.9,13.5,2.4,18.7c1.2,12.3,9.4,22.4,22.9,22.4c13.5,0,21.7-10.2,22.9-22.4c0.5-5.4,1.2-13,2.4-18.7
						c2.4-12,7.6-23.6,15.1-33.3c5.2-6.6,11.3-12,18.4-16.5c5.7-3.8,10.6-7.6,13-14.4C173.3,44.3,161.5,27.3,145.4,27.3z"/>
				</g>
			</g>
		</g>
	</g>
</g>
</svg>
